<svg xmlns="http://www.w3.org/2000/svg" viewBox="0 0 220 220" fill="none">
  <defs>
    <linearGradient id="red" x1="0" y1="0" x2="1" y2="1">
      <stop offset="0" stop-color="#d7261e"/>
      <stop offset="1" stop-color="#b10f0b"/>
    </linearGradient>
    <linearGradient id="gold" x1="0" y1="0" x2="1" y2="0">
      <stop offset="0" stop-color="#f7b733"/>
      <stop offset="1" stop-color="#d6b55a"/>
    </linearGradient>
  </defs>
  <rect width="220" height="220" rx="34" fill="#22080b" opacity="0.7"/>
  <rect x="38" y="54" width="144" height="112" rx="18" fill="url(#red)"/>
  <rect x="38" y="54" width="144" height="112" rx="18" fill="#f15b3c" opacity="0.18"/>
  <rect x="98" y="54" width="12" height="112" fill="url(#gold)"/>
  <rect x="38" y="102" width="144" height="12" fill="url(#gold)"/>
  <rect x="86" y="44" width="24" height="18" rx="6" fill="#f7b733"/>
  <rect x="110" y="44" width="24" height="18" rx="6" fill="#f7b733"/>
  <path d="M74 84c-6-8 12-22 20-10" stroke="#f7b733" stroke-width="3" stroke-linecap="round"/>
  <path d="M154 84c6-8-12-22-20-10" stroke="#f7b733" stroke-width="3" stroke-linecap="round"/>
  <circle cx="86" cy="154" r="10" fill="#f7b733" opacity="0.7"/>
  <circle cx="136" cy="154" r="10" fill="#f7b733" opacity="0.7"/>
  <path d="M30 160c12 8 26 16 46 18" stroke="#f7b733" stroke-width="3" stroke-linecap="round" opacity="0.5"/>
  <path d="M178 166c-10 6-22 10-34 12" stroke="#f7b733" stroke-width="3" stroke-linecap="round" opacity="0.5"/>
  <g transform="translate(140 24)">
    <path d="M26 16c-18 10-28 30-14 38 12 6 24-4 20-18 14 14 28 2 24-12-4-16-20-20-30-8z" fill="#f7b733" opacity="0.32"/>
    <circle cx="28" cy="30" r="5" fill="#f1593d"/>
    <circle cx="40" cy="32" r="4" fill="#f1593d"/>
    <circle cx="22" cy="36" r="4" fill="#f1593d"/>
  </g>
</svg>
