<svg xmlns="http://www.w3.org/2000/svg" viewBox="0 0 420 360" fill="none">
  <defs>
    <linearGradient id="bg" x1="0" y1="0" x2="1" y2="1">
      <stop offset="0" stop-color="#1b0407"/>
      <stop offset="1" stop-color="#2b0c10"/>
    </linearGradient>
    <linearGradient id="leaf" x1="0" y1="0" x2="1" y2="1">
      <stop offset="0" stop-color="#0f8f4a"/>
      <stop offset="1" stop-color="#0b6f3b"/>
    </linearGradient>
    <linearGradient id="wrap" x1="0" y1="0" x2="1" y2="0">
      <stop offset="0" stop-color="#d9c85b"/>
      <stop offset="1" stop-color="#f7b733"/>
    </linearGradient>
    <linearGradient id="cyl" x1="0" y1="0" x2="0" y2="1">
      <stop offset="0" stop-color="#0a8048"/>
      <stop offset="1" stop-color="#0c663b"/>
    </linearGradient>
    <linearGradient id="highlight" x1="0" y1="0" x2="1" y2="1">
      <stop offset="0" stop-color="#f17a5d" stop-opacity="0.9"/>
      <stop offset="1" stop-color="#f7b733" stop-opacity="0.75"/>
    </linearGradient>
  </defs>
  <rect width="420" height="360" rx="28" fill="url(#bg)"/>
  <circle cx="70" cy="56" r="46" fill="#f7b733" opacity="0.1"/>
  <circle cx="360" cy="40" r="30" fill="#f1593d" opacity="0.12"/>
  <g opacity="0.8">
    <circle cx="120" cy="90" r="3" fill="#f7b733"/>
    <circle cx="300" cy="70" r="3" fill="#f7b733"/>
    <circle cx="350" cy="110" r="3" fill="#f7b733"/>
    <circle cx="260" cy="34" r="3" fill="#f1593d"/>
  </g>
  <g transform="translate(34 70)">
    <rect x="20" y="32" width="180" height="180" rx="18" fill="url(#leaf)"/>
    <rect x="20" y="32" width="180" height="180" rx="18" fill="#0e8b48" opacity="0.25"/>
    <rect x="85" y="32" width="10" height="180" fill="url(#wrap)"/>
    <rect x="20" y="115" width="180" height="10" fill="url(#wrap)"/>
    <rect x="60" y="32" width="6" height="180" fill="#f7b733" opacity="0.6"/>
    <rect x="130" y="32" width="6" height="180" fill="#f7b733" opacity="0.6"/>
    <rect x="20" y="70" width="180" height="6" fill="#f7b733" opacity="0.5"/>
    <rect x="20" y="150" width="180" height="6" fill="#f7b733" opacity="0.5"/>
    <rect x="78" y="112" width="44" height="16" rx="8" fill="#d7261e"/>
    <path d="M80 120h40" stroke="#f7e4a6" stroke-width="3" stroke-linecap="round"/>
  </g>
  <g transform="translate(230 56)">
    <rect x="48" y="56" width="86" height="202" rx="26" fill="url(#cyl)"/>
    <rect x="48" y="56" width="86" height="202" rx="26" fill="#0f7b46" opacity="0.25"/>
    <rect x="48" y="92" width="86" height="10" fill="url(#wrap)"/>
    <rect x="48" y="148" width="86" height="10" fill="url(#wrap)"/>
    <rect x="48" y="204" width="86" height="10" fill="url(#wrap)"/>
    <rect x="86" y="56" width="10" height="202" fill="url(#wrap)"/>
    <circle cx="91" cy="56" r="18" fill="#f9c757" opacity="0.5"/>
    <path d="M68 40c14-16 48-16 62 0" stroke="#f7b733" stroke-width="4" stroke-linecap="round"/>
  </g>
  <g transform="translate(46 30)">
    <path d="M302 48c-24 12-36 38-18 48 16 8 32-6 28-24 18 18 36 2 32-14-6-20-26-26-42-10z" fill="#f7b733" opacity="0.3"/>
    <circle cx="310" cy="66" r="6" fill="#f1593d"/>
    <circle cx="326" cy="70" r="4" fill="#f1593d"/>
    <circle cx="294" cy="76" r="4" fill="#f1593d"/>
    <path d="M310 66c-12-10-18-6-26-16" stroke="#f7b733" stroke-width="3" stroke-linecap="round"/>
  </g>
  <path d="M52 290c48 22 104 32 204 18" stroke="#f7b733" stroke-width="3" stroke-linecap="round" opacity="0.35"/>
  <circle cx="86" cy="292" r="8" fill="url(#highlight)"/>
  <circle cx="132" cy="300" r="6" fill="#f7b733" opacity="0.7"/>
  <circle cx="332" cy="286" r="9" fill="#f1593d" opacity="0.75"/>
</svg>
