<svg xmlns="http://www.w3.org/2000/svg" viewBox="0 0 1200 600" fill="none">
  <defs>
    <linearGradient id="bg" x1="0" y1="0" x2="1" y2="1">
      <stop offset="0" stop-color="#1a0508"/>
      <stop offset="1" stop-color="#310b10"/>
    </linearGradient>
    <radialGradient id="glow" cx="0" cy="0" r="1" gradientUnits="userSpaceOnUse" gradientTransform="translate(160 140) rotate(45) scale(280 220)">
      <stop stop-color="#f7b733" stop-opacity="0.35"/>
      <stop offset="1" stop-color="#f7b733" stop-opacity="0"/>
    </radialGradient>
    <radialGradient id="glow2" cx="0" cy="0" r="1" gradientUnits="userSpaceOnUse" gradientTransform="translate(980 120) rotate(45) scale(240 200)">
      <stop stop-color="#f1593d" stop-opacity="0.32"/>
      <stop offset="1" stop-color="#f1593d" stop-opacity="0"/>
    </radialGradient>
  </defs>
  <rect width="1200" height="600" fill="url(#bg)"/>
  <rect width="1200" height="600" fill="url(#glow)"/>
  <rect width="1200" height="600" fill="url(#glow2)"/>
  <g stroke="#f7b733" stroke-width="5" stroke-linecap="round" opacity="0.7">
    <path d="M140 140v80"/>
    <path d="M1060 120v88"/>
  </g>
  <g fill="#f7b733" opacity="0.85">
    <circle cx="140" cy="136" r="14"/>
    <circle cx="140" cy="236" r="10"/>
    <circle cx="1060" cy="116" r="12"/>
    <circle cx="1060" cy="224" r="9"/>
    <circle cx="620" cy="70" r="8"/>
    <circle cx="740" cy="90" r="6"/>
    <circle cx="840" cy="64" r="6"/>
    <circle cx="260" cy="80" r="6"/>
  </g>
  <g fill="#f1593d" opacity="0.85">
    <circle cx="176" cy="160" r="6"/>
    <circle cx="1024" cy="156" r="6"/>
    <circle cx="900" cy="120" r="5"/>
    <circle cx="320" cy="128" r="5"/>
  </g>
  <path d="M80 520c120-60 300-76 520-36 220 40 360 32 520-24" stroke="#f7b733" stroke-width="4" stroke-linecap="round" opacity="0.45"/>
  <path d="M120 420c180-64 420-72 620-26" stroke="#f1593d" stroke-width="4" stroke-linecap="round" opacity="0.2"/>
  <g opacity="0.12" stroke="#f7b733" stroke-width="6" stroke-linecap="round">
    <path d="M360 180l40 36"/>
    <path d="M920 180l-40 40"/>
    <path d="M660 180v60"/>
  </g>
</svg>
